<?xml version="1.0" standalone="no"?>
<!DOCTYPE svg PUBLIC "-//W3C//DTD SVG 20010904//EN"
 "http://www.w3.org/TR/2001/REC-SVG-20010904/DTD/svg10.dtd">
<svg version="1.0" xmlns="http://www.w3.org/2000/svg"
 width="943.000000pt" height="943.000000pt" viewBox="0 0 943.000000 943.000000"
 preserveAspectRatio="xMidYMid meet">
<metadata>
Created by potrace 1.11, written by Peter Selinger 2001-2013
</metadata>
<g transform="translate(0.000000,943.000000) scale(0.100000,-0.100000)"
fill="#000000" stroke="none">
<path d="M4345 9330 c-93 -4 -206 -15 -250 -24 -44 -8 -93 -16 -108 -16 -15 0
-38 -6 -50 -14 -12 -8 -53 -22 -92 -31 -91 -20 -318 -132 -386 -190 -30 -25
-88 -71 -129 -102 -66 -50 -122 -95 -170 -137 -8 -7 -33 -25 -55 -39 -49 -31
-131 -116 -173 -178 -39 -58 -63 -77 -274 -218 -131 -87 -178 -125 -212 -169
-24 -31 -83 -95 -131 -142 -48 -47 -112 -119 -143 -160 -31 -41 -75 -95 -97
-120 -69 -75 -135 -169 -186 -264 -27 -49 -56 -97 -63 -106 -37 -43 -85 -155
-143 -334 -19 -61 -48 -136 -63 -166 -37 -74 -108 -299 -122 -385 -12 -81 -25
-132 -67 -270 -56 -183 -64 -261 -51 -489 6 -111 9 -338 7 -506 -5 -398 12
-609 57 -699 7 -14 21 -75 30 -136 24 -151 49 -244 88 -331 22 -49 39 -74 50
-74 18 0 58 -45 58 -66 0 -48 107 -140 241 -209 49 -25 84 -54 130 -106 35
-39 85 -86 111 -103 66 -45 472 -441 533 -520 28 -36 53 -65 58 -66 8 0 3 133
-7 148 -3 6 1 45 9 88 11 57 12 81 4 91 -8 9 -8 17 -1 26 12 14 13 25 11 102
-1 28 -2 60 -2 73 1 12 -3 22 -9 22 -5 0 -8 21 -5 48 3 40 7 47 24 47 35 0 36
12 2 19 -28 5 -30 8 -18 23 9 11 15 47 16 107 0 50 4 104 8 119 6 22 2 33 -16
53 -25 27 -28 66 -12 224 8 82 7 86 -16 106 -16 14 -20 23 -13 28 6 3 16 -3
22 -15 l12 -21 15 22 c9 13 17 33 19 46 3 35 11 42 39 37 42 -9 72 5 83 37 6
16 7 30 2 30 -5 0 -10 12 -12 28 -3 24 -7 27 -39 27 -35 0 -36 1 -21 22 8 13
24 23 37 23 18 0 24 7 29 35 6 28 14 38 42 50 20 8 53 28 74 45 21 16 43 30
48 30 6 0 15 6 19 14 4 8 24 16 43 18 21 2 34 8 33 16 -2 8 10 12 38 12 54 0
130 20 136 36 6 17 105 37 143 29 24 -5 34 -2 50 17 l20 23 19 -24 19 -24 38
37 c45 43 65 43 79 -2 11 -40 19 -40 55 -2 19 20 26 37 23 51 -5 17 -2 19 21
13 17 -4 26 -2 26 6 0 9 11 11 40 6 32 -5 40 -3 40 9 0 18 18 19 56 4 20 -7
61 -7 141 2 89 9 116 9 128 -1 22 -18 19 -34 -16 -71 -25 -27 -29 -37 -20 -51
14 -23 14 -28 -3 -28 -19 0 -28 -14 -20 -34 5 -14 12 -12 43 13 51 39 77 52
96 45 11 -4 33 12 71 51 30 32 57 56 59 53 3 -2 1 -19 -4 -36 -8 -25 -7 -32 5
-32 19 0 18 -16 -1 -24 -8 -3 -15 -14 -15 -25 0 -10 -8 -29 -18 -42 -15 -18
-17 -30 -11 -66 7 -33 5 -52 -6 -73 -8 -16 -15 -42 -15 -59 0 -16 -4 -33 -10
-36 -14 -9 -12 -43 3 -48 9 -3 9 -7 -1 -19 -11 -14 -7 -17 25 -23 44 -8 79
-41 74 -70 -2 -11 -30 -44 -62 -73 -33 -30 -62 -66 -65 -80 -7 -27 -13 -42
-53 -120 -19 -36 -22 -54 -18 -120 5 -87 28 -145 55 -140 12 3 16 12 14 28
-13 107 -12 150 3 156 8 3 15 14 15 23 0 15 101 91 120 91 4 0 10 10 13 21 4
16 11 20 26 16 14 -3 21 0 21 9 0 9 11 14 29 14 39 0 83 17 98 37 9 12 26 16
58 14 54 -2 59 13 15 49 -24 19 -32 35 -35 68 -3 31 0 44 10 48 8 4 15 10 15
15 0 6 9 19 20 31 11 12 20 30 20 40 0 10 5 18 10 18 9 0 20 8 71 56 10 8 20
36 24 62 4 26 10 52 14 57 5 6 13 24 19 41 8 26 7 34 -9 48 -24 20 -27 20 -31
-1 -3 -14 -9 -10 -26 17 -12 19 -19 42 -17 51 3 9 1 28 -5 43 -6 18 -7 34 0
45 7 13 4 29 -10 55 -15 31 -18 55 -16 129 4 104 -11 152 -50 161 -15 4 -26
16 -30 33 -12 48 -33 77 -56 80 -36 5 -42 5 -65 -2 -17 -6 -23 -3 -23 8 0 8
-16 25 -35 37 -19 12 -35 26 -35 32 0 6 -30 8 -75 6 -71 -3 -75 -2 -75 18 0
25 -6 27 -137 50 -47 8 -95 12 -106 8 -22 -7 -136 14 -151 27 -6 5 -18 9 -29
9 -26 0 -18 31 13 47 22 11 23 13 6 19 -18 7 -18 8 2 15 12 5 22 17 22 27 0
29 26 48 45 32 12 -10 15 -10 15 4 0 9 8 16 19 16 10 0 26 12 36 26 16 24 16
26 -4 31 -43 11 -21 26 29 20 31 -4 48 -2 45 3 -4 6 -12 10 -19 10 -7 0 -22
18 -35 40 -12 22 -28 40 -36 40 -24 0 -27 19 -5 42 l21 23 -42 37 c-33 29 -55
39 -95 44 -30 3 -60 2 -72 -5 -12 -6 -59 -9 -117 -6 -53 2 -106 0 -118 -4 -13
-5 -32 -4 -45 2 -16 7 -29 7 -47 -3 -20 -11 -30 -11 -57 0 -18 8 -34 14 -36
15 -1 1 5 15 13 32 11 23 13 37 5 57 -6 17 -6 26 0 26 18 0 11 29 -12 51 -13
12 -17 18 -9 14 10 -6 12 -2 7 12 -4 12 -1 25 9 33 8 7 15 17 15 24 0 6 17 27
38 46 35 34 109 118 123 142 4 6 5 35 2 64 -5 43 -2 59 17 90 21 33 25 35 32
18 5 -13 6 -9 3 12 -4 21 -1 35 10 44 8 7 15 24 15 38 0 29 66 152 82 152 5 0
8 6 5 14 -4 10 0 12 14 9 11 -3 19 0 19 7 0 18 31 39 56 40 12 0 25 7 28 16 3
8 10 12 16 9 15 -10 12 6 -4 19 -22 17 -9 59 32 103 21 22 42 48 48 59 11 18
12 18 31 2 24 -22 33 -23 33 -3 0 11 8 15 28 13 22 -2 28 1 30 21 2 13 12 26
23 28 15 4 19 14 19 44 0 38 -14 60 -23 37 -3 -8 -6 -5 -6 5 -1 15 5 18 32 15
26 -2 32 -7 33 -28 1 -14 2 -38 3 -53 0 -15 8 -30 16 -33 21 -8 75 15 75 33 0
7 7 16 16 20 21 8 64 -35 64 -64 0 -13 4 -23 9 -23 5 0 9 -33 10 -72 0 -40 1
-80 1 -88 2 -45 -35 -222 -59 -283 -6 -16 -9 -32 -6 -37 8 -13 -15 -68 -31
-74 -10 -4 -13 -13 -9 -25 3 -11 -4 -40 -16 -66 -17 -37 -21 -57 -16 -101 4
-36 2 -54 -5 -54 -6 0 -9 -2 -6 -5 3 -3 19 1 36 8 32 13 84 76 132 157 14 24
41 61 61 84 19 22 45 56 58 74 12 17 29 32 37 32 8 0 14 5 14 10 0 6 7 22 16
35 13 20 19 22 34 12 15 -9 23 -8 37 4 10 9 26 19 36 22 9 4 17 11 17 17 0 5
5 10 10 10 6 0 30 18 52 40 40 38 68 51 68 31 0 -6 -5 -13 -10 -16 -7 -4 -7
-11 -2 -18 5 -7 10 -36 11 -65 2 -47 0 -53 -16 -50 -16 3 -18 -4 -18 -60 0
-47 -3 -61 -13 -57 -10 4 -11 -4 -6 -33 9 -50 13 -55 40 -48 18 5 24 2 24 -9
0 -9 12 -20 26 -25 14 -6 23 -14 19 -19 -3 -5 -1 -12 4 -15 13 -8 35 22 76
107 21 42 40 77 42 77 2 0 16 -11 30 -24 15 -14 30 -23 35 -20 4 3 21 -5 37
-17 15 -11 35 -19 44 -17 12 2 11 11 -9 53 -13 28 -33 61 -44 75 -12 14 -23
47 -26 75 -5 45 -2 55 27 100 18 28 41 60 52 72 10 12 16 26 12 32 -3 6 2 29
11 52 16 34 22 39 41 34 14 -3 23 -1 23 6 0 7 3 10 6 6 11 -10 64 22 64 39 0
18 24 14 26 -4 1 -7 2 -14 3 -17 2 -9 81 35 81 45 0 19 17 10 28 -15 15 -32
30 -32 65 0 19 19 27 35 27 61 0 38 15 74 36 87 7 4 21 23 29 41 9 19 29 48
45 66 16 18 31 36 32 39 5 12 101 71 115 71 7 0 22 5 32 12 17 10 24 7 52 -23
18 -19 32 -38 31 -42 -2 -5 5 -11 15 -13 15 -4 19 -18 21 -87 2 -45 5 -84 8
-86 11 -11 39 18 41 40 0 13 1 30 2 37 2 20 40 -5 51 -33 5 -13 14 -26 19 -30
6 -3 11 -15 11 -25 0 -10 9 -22 20 -25 16 -5 20 -15 20 -46 0 -21 -4 -39 -10
-39 -10 0 -3 -54 11 -82 15 -28 41 -49 55 -44 10 4 14 -2 14 -19 0 -13 4 -26
9 -30 5 -3 17 -29 25 -58 9 -28 27 -65 42 -82 14 -16 31 -42 36 -57 10 -29 36
-36 55 -17 14 14 38 -25 29 -47 -3 -8 -1 -14 4 -14 6 0 10 -8 10 -18 0 -9 11
-24 25 -33 14 -8 55 -48 90 -89 47 -52 65 -81 65 -101 0 -37 -20 -48 -38 -21
-20 30 -28 28 -48 -14 -16 -34 -16 -37 0 -46 13 -8 15 -13 5 -24 -8 -10 -8
-14 0 -14 6 0 11 -11 11 -24 0 -13 6 -27 13 -29 9 -4 9 -6 0 -6 -18 -1 -43
-55 -36 -79 4 -16 1 -22 -11 -22 -9 0 -16 8 -16 19 0 26 -25 44 -50 36 -27 -9
-26 9 3 28 l22 16 -23 19 c-20 15 -43 18 -152 19 -103 1 -133 5 -154 18 -24
16 -32 16 -124 1 -110 -19 -162 -30 -243 -53 -41 -11 -61 -12 -76 -5 -26 14
-92 -23 -112 -63 -32 -68 -41 -80 -54 -79 -20 2 -8 -57 16 -77 20 -16 20 -16
-13 -27 -44 -16 -58 -15 -77 4 -14 14 -14 16 6 21 11 3 21 12 21 19 0 16 -16
19 -25 4 -3 -5 -15 -10 -26 -10 -25 0 -25 -26 1 -33 12 -3 20 -14 20 -27 0
-37 24 -50 92 -51 41 0 73 -7 93 -18 27 -16 34 -16 64 -4 34 14 81 6 81 -14 0
-17 -42 -35 -53 -24 -16 16 -24 14 -30 -9 -3 -11 -12 -20 -21 -20 -9 0 -16 -4
-16 -9 0 -19 -91 -99 -139 -122 -28 -13 -53 -31 -56 -39 -3 -8 -30 -42 -60
-75 -30 -33 -55 -66 -55 -73 0 -7 -6 -20 -14 -27 -19 -20 -41 -154 -29 -174
13 -20 50 -26 69 -11 20 17 18 44 -6 65 -25 23 -9 48 27 43 22 -3 25 -9 29
-60 3 -43 0 -57 -11 -62 -21 -8 -9 -56 18 -75 20 -14 149 -18 192 -6 11 3 26
1 34 -4 23 -15 1 -32 -38 -31 -20 1 -41 2 -47 1 -14 -1 -25 -49 -13 -57 5 -3
9 0 9 5 0 6 8 11 17 11 15 0 14 -2 -2 -14 -11 -8 -23 -12 -27 -10 -13 8 -18
-14 -9 -38 13 -34 126 -57 194 -39 25 6 74 11 108 11 35 0 76 4 93 9 88 27
194 44 354 57 83 7 121 22 108 42 -9 15 -118 7 -175 -13 -26 -9 -78 -15 -127
-15 -73 0 -83 2 -77 16 5 14 1 15 -25 9 -17 -3 -37 -3 -44 2 -7 4 -24 8 -38 8
-15 0 -26 6 -28 18 -2 11 3 17 13 17 11 0 15 5 12 14 -3 8 -1 17 6 20 8 3 6 8
-5 16 -10 6 -18 15 -18 20 0 13 47 13 55 0 4 -6 15 -8 26 -5 15 5 19 2 17 -17
-3 -21 1 -23 56 -26 57 -3 114 11 118 29 0 5 1 15 2 22 2 29 74 74 103 63 7
-3 13 1 13 9 0 8 11 22 25 31 14 9 25 22 25 29 0 16 23 25 66 25 19 0 34 4 34
8 0 13 60 31 78 24 27 -10 50 -43 68 -95 13 -39 19 -47 33 -41 9 4 34 9 56 10
59 4 159 24 169 35 16 15 -7 29 -55 33 -24 2 -48 4 -53 5 -6 1 -5 6 2 13 16
16 15 28 -2 28 -9 0 -12 8 -8 25 2 14 0 25 -7 25 -5 0 -8 6 -5 13 5 15 -83
107 -103 107 -7 0 -13 8 -14 18 0 14 -2 14 -8 -3 -8 -18 -10 -16 -31 18 -12
20 -28 37 -36 37 -8 0 -17 7 -20 15 -4 8 -15 15 -25 15 -10 0 -19 5 -19 11 0
10 -101 62 -130 66 -109 16 -158 22 -173 23 -9 0 -25 9 -34 20 -10 11 -23 20
-29 20 -7 0 -14 8 -17 18 -4 16 -4 16 -10 0 -4 -10 -9 -25 -12 -33 -5 -17 -75
-21 -75 -4 0 7 -11 8 -30 4 -35 -8 -60 7 -60 36 0 17 5 18 43 13 23 -4 44 -11
45 -16 2 -4 9 -8 15 -8 8 0 7 4 -1 12 -7 7 -12 15 -12 20 0 14 96 50 170 64
94 17 101 17 94 1 -4 -11 16 -14 99 -13 70 1 109 -3 119 -12 14 -11 56 -22
160 -42 27 -5 52 -12 58 -15 5 -3 10 -1 10 6 0 28 28 -14 33 -49 4 -34 43 -92
61 -92 4 0 12 13 17 29 9 25 17 30 47 33 29 2 37 7 37 23 0 15 -8 21 -30 23
-16 2 -35 8 -41 13 -6 5 -18 7 -27 3 -8 -3 -18 0 -22 6 -12 20 14 35 62 35 56
0 77 23 50 53 -10 11 -19 29 -20 41 -1 11 -4 21 -8 21 -15 0 -71 54 -80 77 -5
12 -13 23 -18 23 -14 0 -10 -48 5 -54 18 -7 18 -22 -1 -30 -41 -15 -99 49 -70
78 19 19 19 42 0 50 -8 3 -15 10 -15 17 0 6 7 9 15 5 8 -3 15 -1 15 4 0 6 -4
10 -10 10 -5 0 -7 8 -3 18 8 24 44 62 59 62 14 0 74 -60 74 -74 0 -5 8 -19 19
-30 40 -44 80 -140 83 -199 2 -33 7 -55 13 -53 6 2 17 7 26 11 11 4 23 -2 35
-18 56 -73 124 -212 124 -253 0 -11 12 -40 28 -65 24 -38 58 -110 82 -174 42
-109 60 -202 60 -313 0 -69 5 -106 16 -127 9 -16 17 -39 19 -50 1 -11 15 -54
30 -95 26 -74 33 -97 55 -212 l12 -57 28 20 c65 48 75 74 78 199 3 102 0 123
-22 189 -15 41 -26 96 -26 122 0 83 29 274 52 345 21 63 23 86 21 265 -2 144
-7 212 -19 260 -13 51 -18 137 -23 429 -7 337 -9 369 -28 420 -27 71 -80 168
-108 200 -13 14 -28 35 -34 47 -14 28 -14 122 0 232 10 79 10 90 -10 141 -12
30 -42 78 -67 105 -69 76 -77 97 -84 220 -6 89 -14 131 -44 220 -21 61 -46
126 -56 145 -74 142 -103 209 -111 262 -11 67 -16 74 -203 274 -127 135 -301
236 -457 264 -79 14 -123 33 -169 69 -52 40 -170 109 -300 174 -96 48 -128 59
-195 67 -44 5 -118 16 -165 25 -118 21 -416 21 -490 -1 -30 -8 -102 -19 -160
-24 -105 -8 -105 -8 -126 17 -20 23 -29 26 -110 28 -49 1 -165 -1 -259 -5z
m-455 -151 c0 -18 -43 -48 -69 -49 -20 0 -21 2 -11 15 7 8 18 15 25 15 7 0 15
7 19 15 6 17 36 21 36 4z m1970 -1541 c0 -16 -3 -19 -11 -11 -6 6 -8 16 -5 22
11 17 16 13 16 -11z m-52 -72 c-7 -8 -15 -12 -17 -11 -5 6 10 25 20 25 5 0 4
-6 -3 -14z m-1548 -266 c0 -5 -5 -10 -11 -10 -5 0 -7 5 -4 10 3 6 8 10 11 10
2 0 4 -4 4 -10z m125 -20 c-3 -5 -10 -10 -16 -10 -5 0 -9 5 -9 10 0 6 7 10 16
10 8 0 12 -4 9 -10z m985 -84 c0 -3 -4 -8 -10 -11 -5 -3 -10 -1 -10 4 0 6 5
11 10 11 6 0 10 -2 10 -4z m-80 -36 c0 -5 -2 -10 -4 -10 -3 0 -8 5 -11 10 -3
6 -1 10 4 10 6 0 11 -4 11 -10z m-1397 -110 c-3 -11 -9 -17 -14 -15 -10 7 -1
35 11 35 5 0 6 -9 3 -20z m885 -51 c-3 -8 -7 -3 -11 10 -4 17 -3 21 5 13 5 -5
8 -16 6 -23z m-888 -9 c0 -5 -7 -10 -15 -10 -8 0 -15 5 -15 10 0 6 7 10 15 10
8 0 15 -4 15 -10z m1103 -47 c-6 -14 -8 -14 -14 3 -12 30 -10 37 5 24 8 -6 12
-19 9 -27z m-255 5 c-4 -27 -28 -36 -28 -10 0 20 8 32 22 32 5 0 8 -10 6 -22z
m232 -18 c0 -5 -5 -10 -11 -10 -5 0 -7 5 -4 10 3 6 8 10 11 10 2 0 4 -4 4 -10z
m1520 -86 c0 -6 7 -17 15 -24 16 -14 20 -40 6 -40 -5 0 -12 11 -15 25 -4 14
-17 30 -31 35 -16 6 -23 15 -20 25 16 50 17 51 31 20 7 -16 13 -35 14 -41z
m-1800 -2 c0 -11 -8 -18 -20 -19 -23 -2 -26 7 -8 25 17 17 28 15 28 -6z m180
-158 c0 -8 -5 -12 -10 -9 -6 4 -8 11 -5 16 9 14 15 11 15 -7z m1790 -255 c0
-20 -15 -26 -25 -9 -9 15 3 43 15 35 5 -3 10 -15 10 -26z m-3290 -249 c0 -5
-4 -10 -9 -10 -6 0 -13 5 -16 10 -3 6 1 10 9 10 9 0 16 -4 16 -10z m328 -182
c-3 -7 -17 -14 -31 -16 -21 -3 -26 0 -21 12 7 19 58 22 52 4z m266 -43 c33
-14 42 -35 15 -35 -23 0 -80 30 -74 40 8 13 16 13 59 -5z m1860 -46 c-3 -5
-10 -7 -15 -3 -5 3 -7 10 -3 15 3 5 10 7 15 3 5 -3 7 -10 3 -15z m-1769 -159
c3 -5 1 -10 -4 -10 -6 0 -11 5 -11 10 0 6 2 10 4 10 3 0 8 -4 11 -10z m2200
-90 c22 -11 45 -20 52 -20 14 0 15 -1 15 -45 1 -58 -2 -65 -44 -85 -23 -11
-45 -20 -50 -20 -4 0 -8 24 -8 54 0 30 -5 67 -10 82 -9 24 -8 54 3 54 1 0 20
-9 42 -20z m-2515 -82 c30 -7 76 -19 102 -28 48 -15 48 -16 32 -39 -14 -20
-23 -22 -55 -18 -22 3 -39 2 -39 -2 0 -13 -98 -54 -114 -48 -8 3 -44 -3 -78
-14 -48 -16 -78 -35 -127 -81 -35 -33 -77 -68 -92 -77 -32 -20 -177 -192 -203
-242 -10 -19 -28 -52 -41 -74 -13 -22 -24 -58 -24 -80 -2 -77 -12 -86 -206
-184 -33 -16 -79 -42 -103 -56 -52 -31 -98 -32 -128 -4 -23 22 -23 22 -4 47
11 13 20 31 20 38 0 7 11 21 25 30 17 11 24 23 20 34 -7 23 29 67 69 84 29 12
32 17 28 45 -3 22 1 38 13 51 10 11 15 20 10 20 -4 0 -2 7 5 15 7 8 20 15 29
15 10 0 22 14 29 33 16 45 16 46 -13 57 -31 12 -32 28 -2 40 12 5 37 25 56 44
19 20 40 36 47 36 8 0 14 7 14 16 0 23 32 74 46 74 7 0 20 15 29 32 15 30 15
34 0 45 -15 10 -13 15 19 45 19 18 63 44 96 57 41 15 65 31 72 47 6 13 14 24
17 25 3 0 29 2 56 5 79 6 90 8 97 19 9 14 228 8 298 -7z m1994 -32 c-3 -7 2
-43 10 -80 9 -37 16 -71 16 -76 0 -19 -73 -40 -134 -40 -49 1 -67 5 -90 24
-29 24 -29 24 -7 35 12 7 26 9 32 6 10 -7 74 58 84 85 3 8 22 27 42 42 36 28
57 29 47 4z m249 -23 c12 -11 -14 -33 -39 -33 -26 0 -27 1 -18 24 6 16 45 22
57 9z m-453 -33 c-13 -24 -17 -24 -36 -6 -12 13 -10 15 13 19 16 2 29 5 31 6
1 0 -2 -8 -8 -19z m-990 -190 c0 -5 -9 -10 -20 -10 -11 0 -20 5 -20 10 0 6 9
10 20 10 11 0 20 -4 20 -10z m-142 -30 c12 -8 22 -23 22 -33 0 -10 7 -20 15
-23 8 -4 15 -17 15 -30 0 -13 5 -24 11 -24 6 0 9 -6 6 -12 -2 -7 -11 -12 -21
-10 -9 2 -16 -2 -16 -8 0 -15 -19 -12 -36 4 -8 8 -34 18 -59 22 -25 3 -43 10
-40 14 3 4 -11 17 -30 29 -19 11 -35 25 -35 31 0 6 -11 15 -25 20 -14 5 -25
16 -25 24 0 12 16 16 73 18 83 3 113 -1 145 -22z m-428 -24 c25 -8 64 -24 87
-35 23 -12 51 -21 62 -21 11 0 25 -8 30 -18 7 -14 18 -18 41 -14 45 6 92 -16
88 -42 -2 -15 -9 -20 -24 -18 -25 3 -86 -22 -104 -42 -7 -9 -23 -16 -35 -16
-13 0 -45 -9 -71 -20 -74 -32 -89 -26 -90 37 -2 86 -12 117 -49 153 -52 50
-27 64 65 36z m1915 -26 c4 -6 -16 -10 -52 -10 -41 0 -54 3 -43 10 20 13 87
13 95 0z m-2395 -180 c0 -49 -4 -70 -12 -71 -35 -3 -81 4 -102 15 -19 9 -21
15 -12 26 21 27 105 100 116 100 6 0 10 -29 10 -70z m928 48 c23 -23 13 -59
-28 -99 -43 -42 -60 -48 -81 -23 -7 8 -21 13 -31 11 -10 -3 -18 -1 -18 4 0 5
6 9 12 9 7 0 29 19 50 43 21 23 38 36 38 30 0 -7 5 -13 10 -13 6 0 10 8 10 18
0 32 17 41 38 20z m-633 -9 c4 -5 -1 -19 -10 -29 -14 -15 -22 -17 -36 -9 -15
8 -17 14 -9 29 11 21 45 27 55 9z m415 -19 c0 -5 -7 -10 -16 -10 -8 0 -12 5
-9 10 3 6 10 10 16 10 5 0 9 -4 9 -10z m100 -176 c0 -2 -9 -4 -21 -4 -11 0
-18 4 -14 10 5 8 35 3 35 -6z m-880 -34 c0 -5 -4 -10 -10 -10 -5 0 -10 5 -10
10 0 6 5 10 10 10 6 0 10 -4 10 -10z m-640 -540 c0 -5 -4 -10 -10 -10 -5 0
-10 5 -10 10 0 6 5 10 10 10 6 0 10 -4 10 -10z"/>
<path d="M3818 5533 c7 -3 16 -2 19 1 4 3 -2 6 -13 5 -11 0 -14 -3 -6 -6z"/>
<path d="M4351 5004 c0 -11 3 -14 6 -6 3 7 2 16 -1 19 -3 4 -6 -2 -5 -13z"/>
<path d="M3800 6844 c0 -8 5 -12 10 -9 6 3 10 10 10 16 0 5 -4 9 -10 9 -5 0
-10 -7 -10 -16z"/>
<path d="M3786 6811 c-4 -7 -5 -15 -2 -18 9 -9 19 4 14 18 -4 11 -6 11 -12 0z"/>
<path d="M6408 6673 c7 -3 16 -2 19 1 4 3 -2 6 -13 5 -11 0 -14 -3 -6 -6z"/>
<path d="M5520 6186 c0 -9 5 -16 10 -16 6 0 10 4 10 9 0 6 -4 13 -10 16 -5 3
-10 -1 -10 -9z"/>
<path d="M4150 5930 c0 -13 5 -20 13 -17 6 2 12 10 12 17 0 7 -6 15 -12 18 -8
2 -13 -5 -13 -18z"/>
<path d="M4178 5814 c-5 -4 -8 -16 -8 -28 0 -14 3 -17 11 -9 6 6 9 19 7 28 -1
9 -6 13 -10 9z"/>
<path d="M5968 5253 c7 -3 16 -2 19 1 4 3 -2 6 -13 5 -11 0 -14 -3 -6 -6z"/>
<path d="M3676 4635 c-17 -13 -17 -15 -3 -21 8 -3 25 -4 37 -2 22 3 22 3 4 20
-17 14 -22 15 -38 3z"/>
<path d="M3560 4620 c-12 -8 -9 -10 12 -10 15 0 30 5 33 10 8 13 -25 13 -45 0z"/>
<path d="M6530 4070 c0 -5 16 -22 35 -37 19 -15 35 -33 35 -40 0 -6 6 -13 13
-16 7 -2 8 -8 3 -13 -5 -5 -11 -4 -13 4 -8 21 -26 13 -20 -9 4 -15 -2 -25 -26
-40 -18 -10 -39 -19 -48 -19 -10 0 -16 -7 -15 -17 1 -12 -12 -20 -44 -28 -28
-7 -40 -14 -32 -19 17 -10 15 -26 -3 -26 -8 0 -15 -9 -15 -20 0 -26 -34 -26
-77 -1 -30 19 -32 19 -48 2 -8 -10 -15 -25 -13 -32 2 -8 -4 -14 -12 -15 -39
-2 -110 -28 -107 -38 3 -6 10 -10 18 -8 7 2 27 5 43 8 l31 5 -35 -18 c-19 -9
-37 -19 -39 -20 -3 -2 4 -10 15 -18 14 -11 16 -17 7 -22 -12 -9 -11 -71 2
-113 4 -13 18 -35 31 -49 27 -29 30 -41 12 -41 -10 0 -9 -3 1 -9 7 -5 10 -14
7 -20 -4 -6 4 -15 19 -21 34 -13 35 -13 28 6 -4 12 -1 15 13 12 14 -2 19 -12
20 -41 1 -20 -2 -37 -6 -37 -4 0 -6 -36 -5 -80 2 -58 7 -84 17 -93 17 -14 29
-42 21 -51 -3 -3 -24 4 -47 16 -32 16 -58 21 -118 20 -42 0 -85 -5 -95 -11
-12 -8 -13 -11 -3 -9 8 1 25 -4 38 -12 26 -17 29 -55 10 -124 -10 -36 -17 -46
-38 -51 -19 -4 -33 -19 -49 -51 -20 -42 -24 -46 -53 -42 -27 4 -33 0 -57 -38
-22 -36 -32 -44 -67 -49 -25 -4 -50 -2 -63 5 -17 8 -35 9 -72 1 -28 -6 -55 -9
-59 -6 -5 3 -19 -4 -30 -15 -19 -19 -21 -29 -15 -88 3 -37 8 -94 10 -127 11
-151 28 -253 64 -384 25 -90 28 -189 6 -197 -8 -4 -15 -10 -15 -14 0 -31 -155
-130 -204 -130 -7 0 -27 -11 -45 -24 -30 -23 -40 -24 -120 -20 -103 5 -141 12
-161 29 -23 21 -70 30 -70 14 0 -8 -5 -6 -13 5 -7 9 -17 17 -22 16 -30 -6 -43
2 -49 33 -8 41 -50 145 -65 160 -6 6 -11 16 -11 23 0 6 -6 17 -14 23 -8 7 -18
27 -21 44 -4 18 -18 51 -31 74 -13 23 -24 47 -24 53 0 7 -11 26 -25 44 -28 34
-26 33 -72 75 -23 21 -33 39 -33 59 0 20 -10 37 -34 59 -26 23 -36 41 -41 76
-7 45 -6 47 16 47 21 0 19 2 -11 19 -21 11 -47 17 -66 14 -25 -4 -39 2 -68 28
-33 28 -39 31 -60 20 -13 -7 -38 -13 -56 -14 -26 -2 -38 5 -63 35 l-30 38 23
25 c28 30 106 55 171 55 56 0 79 7 79 25 0 10 -13 12 -54 8 -63 -6 -96 1 -78
19 6 6 9 29 5 59 -7 56 3 102 20 96 6 -2 14 -14 17 -28 5 -19 13 -25 40 -27
54 -4 83 17 93 65 l8 42 64 -2 c53 -1 68 2 87 19 13 12 37 29 53 37 17 9 45
24 63 33 17 10 32 24 32 32 0 15 41 13 83 -3 9 -4 17 -3 17 3 0 6 -20 14 -44
17 -29 5 -46 13 -49 24 -3 11 -5 9 -6 -6 -1 -26 -1 -26 -37 -13 -24 10 -25 12
-12 28 19 22 48 86 48 105 0 13 25 38 87 87 8 6 21 6 38 0 19 -7 25 -6 25 5 0
8 7 18 15 23 14 7 13 11 -4 34 -17 20 -19 34 -14 81 l6 57 -28 0 c-19 0 -37
10 -54 29 -25 29 -30 30 -158 40 -135 11 -167 7 -192 -23 -8 -9 -22 -14 -31
-11 -11 3 -20 -1 -23 -10 -7 -17 -59 -11 -92 12 -11 7 -29 13 -41 13 -21 0
-54 -28 -54 -46 0 -11 -72 -68 -120 -94 -14 -9 -25 -20 -23 -26 2 -5 -6 -10
-16 -11 -28 -2 -107 -63 -121 -93 -6 -14 -18 -36 -27 -48 -14 -22 -16 -23 -33
-7 -25 23 -43 10 -35 -25 4 -19 1 -33 -10 -44 -15 -14 -19 -14 -45 -1 -29 15
-53 4 -28 -12 18 -11 40 -53 29 -53 -5 0 -12 -13 -16 -30 -4 -16 -11 -33 -17
-36 -16 -10 -58 18 -58 39 0 15 -5 18 -22 13 -13 -3 -27 -6 -31 -6 -19 0 0
-35 18 -35 15 0 21 -8 23 -32 3 -25 -1 -33 -13 -33 -9 0 -19 9 -22 20 -5 21
-23 28 -23 10 0 -6 -11 -15 -24 -21 -20 -10 -24 -18 -23 -53 2 -38 -1 -43 -43
-73 -40 -28 -46 -29 -57 -15 -17 20 -17 69 -1 74 8 3 13 24 13 54 0 44 2 49
24 52 21 3 23 0 19 -22 -4 -18 -1 -26 8 -26 20 0 17 33 -5 61 -10 13 -21 31
-24 39 -3 9 -6 10 -6 3 -1 -19 -21 -16 -21 3 0 10 -6 14 -14 11 -8 -3 -17 -1
-20 6 -2 7 -5 3 -5 -9 -1 -11 -12 -31 -25 -43 -30 -28 -38 -83 -19 -135 7 -21
13 -58 13 -82 0 -23 5 -46 10 -49 6 -3 10 -16 10 -29 0 -12 7 -31 15 -42 8
-10 15 -30 15 -44 0 -14 9 -40 20 -57 11 -18 21 -47 22 -64 1 -17 7 -33 12
-36 5 -3 6 -1 2 5 -3 6 -1 14 5 18 8 4 9 -2 5 -22 -9 -44 6 -88 32 -92 23 -4
27 -14 36 -92 5 -40 34 -171 54 -240 4 -14 12 -34 19 -45 10 -17 14 -18 37 -6
40 22 54 99 25 136 -4 6 -4 17 1 25 5 9 5 19 -1 26 -6 8 -4 14 7 18 10 4 14
13 11 25 -3 14 2 21 19 25 21 6 37 29 17 24 -5 0 -16 2 -26 7 -13 5 -15 11 -7
20 8 9 8 15 0 20 -5 3 -10 18 -10 32 0 16 -7 27 -18 30 -13 3 -25 24 -36 64
-10 32 -21 59 -24 59 -4 0 -18 -14 -33 -31 -19 -22 -32 -30 -44 -25 -14 5 -15
9 -5 21 6 8 9 19 5 25 -3 5 1 10 9 10 22 0 20 18 -1 22 -15 3 -14 6 7 26 l24
22 -40 1 -39 0 34 17 c26 13 35 14 38 5 5 -14 43 -18 43 -5 0 4 4 13 9 21 12
19 55 -4 47 -26 -4 -10 2 -22 15 -31 19 -13 20 -16 5 -24 -18 -10 -22 -48 -6
-48 6 0 16 12 22 28 9 21 12 23 15 10 3 -10 9 -18 14 -18 6 0 16 -15 24 -34 8
-19 27 -41 42 -48 15 -7 29 -22 31 -33 3 -11 10 -24 18 -28 8 -4 14 -15 14
-23 0 -10 7 -13 25 -8 26 7 29 2 25 -47 -1 -16 6 -33 17 -40 10 -8 31 -33 47
-57 16 -23 33 -42 38 -42 5 0 6 -5 2 -11 -3 -6 3 -24 15 -40 11 -15 21 -33 21
-39 0 -5 5 -10 10 -10 15 0 12 22 -6 48 -14 21 -14 22 5 22 17 0 21 -6 21 -34
0 -18 7 -39 15 -46 8 -7 15 -9 15 -4 0 4 5 3 12 -4 8 -8 8 -15 -2 -27 -11 -13
-10 -18 8 -31 12 -8 22 -25 22 -38 0 -29 10 -39 26 -25 18 15 44 4 42 -18 0
-10 0 -39 0 -65 2 -37 6 -48 22 -53 11 -3 20 -13 20 -20 0 -8 6 -18 13 -22 7
-4 19 -28 27 -52 8 -25 27 -58 43 -75 16 -17 33 -41 37 -53 5 -12 28 -34 51
-49 35 -21 46 -24 65 -15 21 9 24 8 24 -10 0 -11 4 -18 9 -14 5 3 13 -5 17
-17 11 -37 25 -50 40 -37 9 8 16 5 24 -12 8 -14 15 -18 19 -10 5 7 15 3 30
-15 22 -26 49 -28 42 -3 -2 8 -3 33 -3 56 1 33 -3 44 -23 57 -13 9 -30 13 -38
10 -10 -3 -19 5 -28 24 -7 17 -26 38 -41 47 -17 9 -28 25 -29 38 0 21 -1 21
-9 2 -7 -19 -8 -19 -15 -2 -4 10 -20 24 -36 33 -38 19 -40 49 -2 39 l27 -6
-24 19 c-23 19 -50 19 -50 1 0 -5 -7 -9 -15 -9 -13 0 -19 17 -17 41 1 3 -10
12 -23 19 -32 17 -32 32 0 24 15 -4 25 -2 25 5 0 6 -8 11 -19 11 -10 0 -21 9
-24 20 -3 11 0 20 6 20 21 0 108 -63 138 -101 17 -21 46 -46 66 -55 19 -10 40
-27 45 -40 6 -12 16 -20 23 -18 8 3 17 -8 25 -30 6 -19 27 -47 47 -62 l36 -28
15 22 c11 16 24 22 52 22 20 0 40 3 44 8 4 4 15 7 24 8 10 1 28 2 41 3 19 1
21 4 12 15 -9 11 -6 15 15 20 33 9 64 -1 64 -20 0 -13 -20 -19 -45 -14 -5 1
-4 -4 3 -12 10 -10 16 -10 34 1 18 11 22 11 30 -2 7 -13 14 -14 38 -5 17 5 39
8 50 5 11 -3 20 -2 20 2 0 4 44 12 98 19 57 8 101 19 108 27 5 8 23 17 39 21
16 4 44 16 62 27 18 10 40 17 48 13 8 -3 21 1 29 9 8 8 19 15 25 15 6 0 11 4
11 10 0 5 14 29 31 54 21 30 41 46 61 50 24 5 29 10 25 26 -5 19 14 45 25 34
3 -3 9 11 12 31 4 20 14 39 22 42 7 3 14 13 14 23 0 11 5 22 10 25 6 4 8 15 5
26 -4 13 -2 19 9 19 9 0 22 16 30 35 8 19 20 35 26 35 7 0 10 13 8 33 -3 29 1
34 35 49 22 10 37 24 37 34 0 10 7 25 16 35 8 9 16 27 16 40 1 13 8 32 16 41
8 9 11 22 7 27 -3 6 0 14 9 17 8 3 12 12 9 20 -3 7 5 25 16 40 12 15 21 38 21
53 0 14 16 51 35 81 19 30 35 59 35 66 0 7 16 26 35 43 19 17 35 35 35 41 0
13 16 13 41 0 10 -6 19 -20 19 -31 0 -13 6 -19 18 -17 11 2 18 -4 20 -19 2
-13 9 -23 16 -23 17 0 25 -61 19 -142 -5 -57 -3 -67 20 -93 25 -30 27 -35 27
-58 0 -23 40 -57 65 -57 27 0 32 9 13 28 -10 10 -10 17 0 32 7 11 8 20 3 20
-4 0 -6 11 -3 25 2 14 11 25 19 25 9 0 31 9 49 21 27 17 34 27 34 53 0 48 -26
126 -47 142 -17 13 -17 15 -1 24 10 6 19 30 23 61 6 45 5 52 -14 65 -24 17
-28 44 -7 44 21 0 66 50 66 74 0 11 14 36 31 54 35 37 52 85 44 124 -4 14 -1
29 4 33 6 3 11 26 11 51 0 35 6 50 24 67 17 16 23 30 19 48 -6 34 22 48 31 16
4 -17 8 -19 17 -10 9 9 9 23 -3 60 -13 40 -13 49 -2 51 18 4 18 22 1 22 -21 0
-35 38 -42 113 -4 45 -12 70 -21 74 -8 3 -14 11 -14 19 0 8 -14 26 -31 41 -17
16 -44 40 -60 54 -16 14 -29 31 -29 37 0 5 -13 22 -30 35 -16 14 -30 29 -30
34 0 4 -22 24 -48 43 -26 19 -60 47 -77 62 -31 29 -45 35 -45 18z m-204 -557
c19 -20 33 -37 31 -39 -9 -9 -77 11 -82 24 -6 15 2 52 11 52 3 0 21 -16 40
-37z m-1931 -63 c3 -6 0 -13 -9 -16 -8 -3 -12 -12 -10 -19 3 -7 1 -16 -5 -20
-7 -4 -11 7 -11 29 0 35 20 50 35 26z m-561 -449 c7 -11 -22 -23 -36 -15 -6 4
-5 10 3 15 18 11 26 11 33 0z m-42 -66 c-2 -14 1 -31 7 -39 9 -10 8 -15 -3
-19 -8 -3 -20 1 -27 9 -9 11 -14 12 -19 3 -4 -6 -13 -10 -20 -7 -8 2 -1 15 18
33 17 16 29 32 26 37 -3 4 1 8 9 8 10 0 13 -8 9 -25z m2726 13 c19 -19 14 -28
-13 -28 -16 0 -25 -6 -25 -15 0 -8 -9 -15 -20 -15 -15 0 -20 7 -20 25 0 18 5
25 20 25 11 0 20 5 20 10 0 14 23 13 38 -2z m-283 -93 c0 -10 -6 -20 -12 -22
-8 -3 -13 5 -13 22 0 17 5 25 13 23 6 -3 12 -13 12 -23z m-2440 -15 c9 -15 -4
-50 -20 -50 -19 0 -27 17 -20 40 7 21 30 27 40 10z m232 -72 c-3 -8 -6 -5 -6
6 -1 11 2 17 5 13 3 -3 4 -12 1 -19z m2223 -14 c0 -8 -5 -12 -10 -9 -6 4 -8
11 -5 16 9 14 15 11 15 -7z m-30 -55 c0 -20 -15 -26 -25 -9 -9 15 3 43 15 35
5 -3 10 -15 10 -26z m-1945 1 c-3 -5 -13 -10 -21 -10 -8 0 -14 5 -14 10 0 6 9
10 21 10 11 0 17 -4 14 -10z m-21 -87 c10 4 16 1 16 -8 0 -8 11 -22 25 -31 32
-21 37 -84 6 -84 -11 0 -21 4 -23 10 -5 14 -75 -7 -82 -25 -8 -21 -39 -7 -33
15 3 13 0 16 -14 13 -34 -9 -33 24 3 68 35 44 69 63 79 46 4 -5 14 -7 23 -4z
m636 -1017 c0 -3 -4 -8 -10 -11 -5 -3 -10 -1 -10 4 0 6 5 11 10 11 6 0 10 -2
10 -4z"/>
<path d="M4703 3920 c-30 -12 -29 -31 1 -59 19 -18 31 -21 54 -16 17 3 36 13
43 21 6 8 22 14 35 14 60 0 -1 36 -76 45 -19 2 -45 0 -57 -5z"/>
<path d="M5008 3853 c-31 -5 -32 -6 -18 -34 6 -10 20 -19 31 -19 14 0 19 -5
16 -14 -9 -22 12 -34 85 -47 67 -12 105 -8 93 11 -11 17 -168 113 -177 109 -2
-1 -15 -4 -30 -6z"/>
<path d="M5727 3792 c-34 -23 -37 -29 -31 -59 6 -31 4 -34 -31 -49 -29 -12
-44 -13 -70 -4 -41 13 -90 -4 -79 -29 3 -9 7 -22 7 -30 0 -8 13 -19 29 -25 15
-6 28 -15 28 -21 0 -6 20 -19 45 -29 46 -20 56 -32 30 -42 -8 -3 -19 -21 -25
-40 -12 -35 -43 -49 -38 -16 2 11 -5 18 -21 20 -13 2 -26 12 -28 23 -13 47
-39 3 -44 -72 -2 -25 1 -50 5 -57 4 -7 4 -17 1 -23 -9 -13 55 -79 78 -79 9 0
17 4 17 9 0 5 18 11 40 15 40 6 41 7 34 41 -6 33 -5 35 20 35 15 0 43 7 62 15
41 17 54 13 54 -16 0 -12 5 -19 13 -16 6 2 37 -7 67 -20 59 -26 100 -24 100 5
1 9 20 29 44 45 50 31 56 32 56 12 0 -8 7 -15 15 -15 8 0 17 -11 21 -25 7 -29
12 -30 38 -10 10 8 22 12 26 10 5 -3 11 2 14 11 7 19 -3 35 -76 114 -13 15
-22 34 -20 43 2 9 -1 24 -7 34 -9 16 -10 16 -11 -4 0 -13 -6 -23 -15 -23 -8 0
-20 10 -26 23 -7 12 -23 32 -36 44 -12 12 -23 34 -23 48 0 18 -5 25 -19 25
-11 0 -34 12 -51 26 -31 27 -33 38 -14 87 8 22 -45 47 -98 46 -29 -1 -56 -10
-81 -27z m275 -284 c-9 -9 -15 -9 -24 0 -9 9 -7 12 12 12 19 0 21 -3 12 -12z
m88 -8 c0 -5 -4 -10 -10 -10 -5 0 -10 5 -10 10 0 6 5 10 10 10 6 0 10 -4 10
-10z m-85 -110 c3 -5 -1 -10 -9 -10 -9 0 -16 5 -16 10 0 6 4 10 9 10 6 0 13
-4 16 -10z"/>
<path d="M5655 3737 c-4 -10 -5 -21 -1 -24 10 -10 18 4 13 24 -4 17 -4 17 -12
0z"/>
<path d="M5940 3723 c0 -13 49 -32 56 -22 3 5 -7 14 -21 19 -32 12 -35 12 -35
3z"/>
<path d="M5404 3606 c-19 -14 -19 -15 2 -43 24 -32 74 -45 74 -18 0 8 7 18 15
21 27 11 16 33 -22 43 -48 14 -45 14 -69 -3z"/>
<path d="M5010 3365 c0 -12 -4 -25 -9 -30 -6 -6 -12 -38 -15 -72 -4 -55 -2
-63 13 -63 52 0 122 89 90 112 -11 8 -11 9 1 5 9 -3 25 2 35 10 17 12 18 15 5
23 -20 13 -26 12 -40 -5 -18 -22 -36 -18 -59 13 -18 24 -20 25 -21 7z"/>
<path d="M5162 3340 c0 -14 2 -19 5 -12 2 6 2 18 0 25 -3 6 -5 1 -5 -13z"/>
<path d="M5775 3340 c3 -5 8 -10 11 -10 2 0 4 5 4 10 0 6 -5 10 -11 10 -5 0
-7 -4 -4 -10z"/>
<path d="M5185 3310 c-3 -5 1 -10 9 -10 9 0 16 5 16 10 0 6 -4 10 -9 10 -6 0
-13 -4 -16 -10z"/>
<path d="M6945 3179 c-10 -15 3 -25 16 -12 7 7 7 13 1 17 -6 3 -14 1 -17 -5z"/>
<path d="M5947 3123 c-11 -11 -8 -53 4 -53 6 0 9 -7 5 -15 -8 -22 16 -19 55 8
43 29 51 57 15 57 -14 0 -28 -5 -32 -11 -5 -8 -10 -6 -16 5 -10 17 -20 20 -31
9z"/>
<path d="M2810 2923 c0 -10 5 -25 10 -33 13 -21 31 0 24 28 -7 26 -34 30 -34
5z"/>
<path d="M7174 2891 c-26 -16 -29 -23 -27 -64 1 -26 -2 -49 -8 -52 -5 -4 -6
-16 -3 -29 4 -17 -1 -27 -21 -40 -20 -13 -24 -21 -16 -29 6 -6 11 -19 11 -29
0 -25 42 -33 79 -14 28 15 31 21 31 61 0 25 -4 45 -10 45 -18 0 -10 28 13 47
29 22 40 63 24 83 -29 36 -42 40 -73 21z"/>
<path d="M3853 2713 c-7 -15 -11 -28 -9 -30 9 -9 46 23 44 36 -5 25 -23 22
-35 -6z"/>
<path d="M2825 2640 c-8 -13 -1 -24 14 -19 6 3 7 10 2 18 -6 10 -10 10 -16 1z"/>
<path d="M5053 2643 c28 -4 38 -23 12 -23 -8 0 -15 -4 -15 -10 0 -5 9 -10 19
-10 14 0 21 -8 23 -27 2 -22 9 -29 29 -31 15 -2 35 -12 45 -23 18 -20 50 -25
73 -10 11 7 9 10 -8 16 -11 3 -21 13 -21 20 0 8 -6 18 -13 22 -20 12 -28 41
-14 50 13 8 -92 33 -133 31 -24 -1 -24 -1 3 -5z m100 -30 c3 -5 1 -17 -4 -28
-4 -11 -8 -17 -8 -12 -1 4 0 9 2 12 1 2 -7 11 -18 19 -20 15 -20 15 2 16 12 0
24 -3 26 -7z"/>
<path d="M2890 2612 c0 -17 -6 -22 -25 -22 -14 0 -25 -4 -25 -10 0 -5 -6 -10
-14 -10 -38 0 -28 -77 20 -157 24 -40 34 -72 40 -121 6 -60 11 -71 44 -105 21
-20 41 -49 44 -62 9 -35 153 -204 202 -237 22 -14 70 -65 108 -113 38 -47 86
-98 107 -112 22 -14 39 -30 39 -35 0 -4 11 -14 25 -20 14 -6 25 -19 25 -28 0
-18 42 -65 128 -143 65 -59 78 -79 98 -148 21 -72 72 -166 102 -190 14 -10 36
-19 49 -19 21 0 24 -4 19 -24 -7 -28 26 -95 86 -174 32 -43 41 -66 49 -120 11
-79 20 -93 94 -158 31 -27 94 -88 141 -135 69 -70 95 -90 142 -107 32 -12 94
-42 137 -67 44 -25 109 -54 145 -65 36 -11 88 -31 115 -45 96 -47 267 -105
333 -113 37 -4 167 -7 288 -7 208 0 223 1 244 20 13 11 29 34 36 52 17 38 72
62 272 113 44 11 112 63 112 85 0 7 16 23 35 35 19 11 45 33 58 48 13 15 32
32 43 38 23 14 31 44 13 55 -9 5 -4 10 17 14 57 12 92 47 64 65 -9 6 -18 6
-24 0 -6 -6 -18 -10 -28 -10 -10 0 -18 -6 -18 -14 0 -7 -9 -16 -20 -19 -12 -3
-20 -14 -20 -26 0 -12 -4 -21 -9 -21 -5 0 -13 -10 -17 -22 -3 -13 -11 -29 -18
-37 -9 -11 -12 -9 -16 10 -3 13 -15 26 -25 28 -11 2 -24 9 -30 16 -12 16 -23
18 -86 16 -41 -1 -48 -4 -64 -35 -25 -47 -49 -58 -122 -58 -57 0 -63 -1 -58
-17 4 -13 -4 -26 -25 -42 -35 -28 -38 -39 -10 -39 11 0 20 -5 20 -11 0 -6 -9
-13 -20 -16 -11 -3 -20 -14 -20 -24 0 -11 -4 -19 -10 -19 -5 0 -10 9 -10 20 0
17 -3 19 -19 11 -14 -8 -23 -5 -40 10 -11 11 -21 23 -21 27 0 20 22 82 29 82
4 0 17 18 30 40 12 22 27 38 32 34 6 -3 13 3 16 15 4 15 13 21 33 21 31 0 55
23 47 45 -4 8 -2 17 3 20 18 11 11 28 -7 20 -10 -5 -28 -9 -40 -10 -12 -1 -37
-13 -57 -28 -20 -16 -41 -24 -50 -21 -19 7 -82 -20 -93 -40 -4 -8 -21 -16 -38
-18 l-30 -3 -2 -90 c-2 -67 -6 -93 -18 -101 -8 -6 -15 -20 -15 -32 0 -11 -6
-22 -14 -25 -9 -4 -12 -14 -9 -26 4 -15 1 -21 -11 -21 -9 0 -16 7 -16 15 0 11
-12 15 -51 15 -40 0 -50 -3 -46 -14 7 -17 -22 -31 -36 -17 -7 7 -6 15 2 25 15
18 5 59 -12 50 -8 -5 -8 -2 1 7 17 18 15 46 -4 53 -33 13 -70 4 -108 -24 -22
-17 -43 -30 -48 -30 -5 0 -7 20 -4 45 3 24 1 55 -4 67 -5 13 -9 17 -9 11 -1
-7 -8 -13 -17 -13 -8 0 -12 -5 -9 -11 4 -6 -1 -16 -11 -24 -15 -10 -16 -16 -6
-28 16 -19 6 -26 -44 -32 -29 -4 -37 -2 -41 14 -3 11 -17 21 -33 24 -19 4 -30
14 -34 32 -4 15 -13 25 -25 25 -10 0 -21 7 -25 15 -3 8 -14 15 -25 15 -28 0
-61 47 -61 88 0 33 -1 34 -30 29 -22 -5 -41 1 -75 21 -38 23 -44 32 -45 60 0
32 -1 33 -37 26 -33 -6 -36 -5 -30 15 4 15 -3 27 -26 45 -26 20 -29 27 -18 40
9 11 10 20 1 36 -9 17 -19 20 -63 18 -43 -3 -52 0 -55 16 -2 10 2 30 10 44 10
19 10 26 1 29 -7 2 -9 11 -6 20 4 10 2 14 -5 10 -6 -4 -20 6 -32 23 -14 20
-26 28 -33 22 -7 -4 -18 -8 -24 -8 -19 1 -16 19 3 22 23 4 27 10 28 44 1 18
-4 30 -11 30 -7 0 -13 -4 -13 -10 0 -11 -64 25 -97 56 -24 22 -30 48 -13 59 6
3 10 12 10 18 0 8 -3 7 -9 -2 -16 -25 -37 -5 -38 37 -3 70 -29 128 -78 173
-50 46 -53 56 -27 75 14 11 14 13 2 14 -8 0 -27 13 -43 29 -25 27 -29 28 -55
16 -15 -7 -42 -16 -59 -20 -27 -5 -33 -3 -33 10 0 9 -7 23 -15 32 -17 17 -12
47 13 76 14 16 13 17 -12 17 -15 0 -29 -7 -33 -16 -5 -13 -14 -15 -45 -10 -27
4 -37 3 -33 -4 8 -13 -12 -40 -29 -40 -6 0 -12 21 -14 49 l-2 49 45 4 c25 2
46 0 48 -5 3 -10 127 4 127 14 0 5 -5 8 -12 6 -6 -1 -14 7 -16 17 -3 15 0 18
17 13 16 -4 21 -1 21 14 0 24 -43 44 -48 23 -2 -8 -8 -14 -13 -14 -5 0 -9 -11
-9 -25 0 -29 -15 -32 -56 -10 -16 8 -37 15 -46 15 -10 0 -18 7 -18 15 0 8 -8
15 -18 15 -27 0 -33 10 -20 34 7 11 13 23 14 26 0 3 4 14 9 24 11 26 -30 62
-52 45 -8 -7 -12 -18 -9 -26 6 -15 -10 -18 -19 -3 -7 12 -16 12 -33 2 -17 -11
-4 -42 18 -42 19 0 50 -30 50 -49 0 -7 -12 -33 -26 -59 -21 -38 -24 -50 -14
-65 8 -14 8 -22 -1 -33 -17 -21 -31 -17 -24 6 5 14 2 20 -9 20 -15 0 -23 42
-17 87 1 7 -14 23 -34 35 -19 13 -37 31 -41 41 -3 9 -10 17 -15 17 -5 0 -9 11
-9 24 0 14 -5 28 -10 31 -8 5 -8 11 -1 19 6 7 9 15 6 18 -3 3 1 11 10 18 16
13 21 40 7 40 -5 0 -21 -13 -35 -30 -29 -33 -75 -40 -99 -17 -7 7 -25 21 -40
31 -18 12 -29 29 -33 57 -4 24 -12 39 -21 39 -8 0 -28 7 -45 15 l-30 16 25 30
c24 29 25 32 11 60 -18 33 -30 37 -40 12 -7 -17 -8 -16 -16 2 -6 14 -7 5 -3
-27 3 -32 1 -48 -6 -48 -6 0 -13 7 -15 15 -3 8 -8 23 -12 33 -6 16 -6 16 -10
-1 -7 -28 -23 -9 -23 28 0 27 -6 37 -34 54 -19 12 -37 29 -40 38 -7 18 20 53
41 53 8 0 11 4 8 10 -3 5 -1 19 5 30 7 14 8 26 1 38 -10 15 -10 15 -11 -3 0
-33 -33 -47 -67 -30 -23 12 -24 15 -8 15 18 0 18 2 -5 20 -30 23 -51 10 -32
-20 16 -26 15 -30 -7 -30 -34 0 -38 72 -15 243 4 31 2 53 -5 60 -8 8 -11 5
-11 -11z m1060 -1191 c0 -5 -6 -14 -14 -20 -16 -13 -32 2 -21 19 8 12 35 13
35 1z m1650 -1161 c0 -15 -35 -30 -69 -30 -61 0 -21 38 42 39 15 1 27 -3 27
-9z m-122 -34 c3 -13 -1 -17 -14 -14 -11 2 -20 11 -22 22 -3 13 1 17 14 14 11
-2 20 -11 22 -22z"/>
<path d="M4708 2593 c7 -3 16 -2 19 1 4 3 -2 6 -13 5 -11 0 -14 -3 -6 -6z"/>
<path d="M7206 2542 c-2 -4 -1 -14 5 -22 7 -12 9 -10 9 8 0 23 -5 28 -14 14z"/>
<path d="M6192 2438 c2 -6 10 -14 16 -16 7 -2 10 2 6 12 -7 18 -28 22 -22 4z"/>
<path d="M3276 2423 c-12 -12 -6 -31 13 -36 14 -3 17 0 14 14 -6 22 -17 31
-27 22z"/>
<path d="M6993 2413 c-13 -2 -23 -10 -23 -18 0 -7 -7 -15 -15 -19 -19 -7 -20
-36 -1 -36 22 0 30 -19 16 -35 -10 -12 -10 -18 0 -30 15 -19 5 -35 -23 -35
-16 0 -27 -10 -36 -32 -8 -18 -13 -36 -13 -40 1 -4 -5 -25 -12 -47 -8 -21 -12
-49 -9 -61 4 -14 -2 -28 -16 -41 -11 -11 -21 -31 -21 -44 0 -13 -10 -32 -23
-42 -13 -10 -21 -26 -19 -37 2 -10 -1 -28 -6 -40 -32 -69 -43 -98 -41 -118 4
-49 0 -61 -21 -55 -23 6 -30 -24 -27 -119 2 -56 -1 -63 -28 -87 -17 -15 -40
-27 -52 -27 -27 0 -30 -12 -8 -30 19 -16 19 -37 0 -47 -23 -13 -30 -67 -11
-86 19 -19 21 -48 4 -44 -9 1 -14 -13 -16 -39 -3 -48 -26 -74 -68 -78 -22 -2
-30 -9 -32 -27 -2 -13 -9 -30 -15 -37 -8 -10 -7 -16 4 -23 18 -11 26 -11 34 1
3 6 1 10 -4 10 -6 0 -11 5 -11 10 0 20 28 9 34 -12 16 -61 -3 -110 -30 -74 -7
10 -22 16 -36 14 -19 -2 -23 -9 -24 -39 0 -23 -9 -45 -23 -60 -30 -33 -36 -63
-18 -106 12 -31 19 -37 38 -34 71 10 120 64 198 215 33 66 61 124 61 128 0 5
23 54 51 110 l50 101 -20 28 c-26 35 -26 43 -1 36 38 -10 69 43 43 74 -13 16
-6 72 8 63 5 -3 12 3 15 13 15 43 36 83 44 83 6 0 10 7 10 15 0 8 -4 15 -10
15 -5 0 -14 9 -20 21 -9 16 -8 24 5 39 12 14 15 27 10 50 -6 27 -4 32 15 37
17 5 20 11 15 33 -3 16 -2 31 4 34 13 8 5 49 -19 91 l-20 35 33 0 c46 0 59 12
59 56 1 57 -6 75 -38 100 -21 17 -26 26 -17 35 8 8 20 6 44 -7 19 -9 36 -20
39 -24 3 -4 15 -10 27 -14 26 -8 41 15 38 59 -1 17 4 40 12 53 17 28 12 79
-12 116 -10 15 -18 37 -19 49 -1 22 -15 28 -53 20z"/>
<path d="M3271 2334 c0 -11 3 -14 6 -6 3 7 2 16 -1 19 -3 4 -6 -2 -5 -13z"/>
<path d="M6527 2222 c-15 -16 -25 -31 -21 -34 3 -3 -2 -20 -11 -37 -11 -23
-13 -36 -5 -50 5 -11 10 -38 10 -61 0 -41 1 -42 33 -39 52 3 67 0 67 -16 0 -8
9 -15 20 -15 14 0 20 6 18 17 -2 11 8 22 25 31 24 12 28 18 22 40 -6 26 -21
42 -39 42 -5 0 -3 -7 4 -15 10 -12 10 -16 -1 -19 -33 -11 -83 -10 -75 2 2 4 1
14 -4 22 -6 10 -3 21 8 34 13 14 14 20 5 23 -18 7 -16 23 3 23 11 0 14 6 9 23
-4 12 -9 30 -11 40 -7 25 -26 21 -57 -11z"/>
<path d="M5347 2153 c-2 -5 -5 -23 -5 -40 0 -22 4 -33 14 -33 8 0 14 10 14 24
0 13 3 31 6 40 6 16 -20 24 -29 9z"/>
<path d="M5345 2061 c-3 -5 -1 -12 5 -16 5 -3 10 1 10 9 0 18 -6 21 -15 7z"/>
<path d="M6481 1941 c-11 -7 -9 -10 8 -16 25 -8 36 -2 26 14 -8 13 -15 14 -34
2z"/>
<path d="M3495 1921 c-7 -12 12 -24 25 -16 11 7 4 25 -10 25 -5 0 -11 -4 -15
-9z"/>
<path d="M6440 1826 c0 -8 71 -12 76 -4 3 4 -13 8 -35 8 -23 0 -41 -2 -41 -4z"/>
<path d="M6676 1745 c-3 -9 0 -15 9 -15 8 0 15 7 15 15 0 8 -4 15 -9 15 -5 0
-11 -7 -15 -15z"/>
<path d="M6560 1720 c0 -11 2 -20 4 -20 2 0 11 -3 20 -6 23 -9 20 19 -4 34
-18 11 -20 10 -20 -8z"/>
<path d="M3970 1529 c0 -5 5 -7 10 -4 6 3 10 8 10 11 0 2 -4 4 -10 4 -5 0 -10
-5 -10 -11z"/>
<path d="M4173 1393 c-22 -8 -14 -33 10 -33 16 0 23 6 23 20 0 20 -9 23 -33
13z"/>
<path d="M5922 1388 c-6 -6 -33 -10 -60 -9 -43 1 -52 -2 -66 -24 -11 -17 -26
-25 -44 -25 -16 0 -50 -14 -76 -30 -44 -28 -56 -31 -142 -32 -53 -1 -97 -5
-100 -10 -3 -4 -29 -8 -59 -8 -30 0 -66 -5 -82 -12 -15 -6 -38 -10 -50 -9 -13
1 -33 -9 -48 -23 -34 -34 -63 -40 -108 -21 -25 10 -37 22 -37 35 0 12 -8 21
-22 24 -98 20 -128 30 -146 47 -12 10 -28 19 -37 19 -9 0 -25 4 -35 10 -29 16
-45 -12 -20 -35 23 -21 27 -88 8 -130 -15 -33 -3 -45 45 -47 28 -1 43 5 61 25
30 32 36 33 36 7 0 -11 -7 -20 -15 -20 -12 0 -13 -5 -3 -27 7 -16 21 -39 32
-52 18 -20 27 -22 69 -17 29 3 47 1 47 -5 0 -6 8 -9 18 -8 9 1 26 -2 36 -6 13
-6 23 -3 32 10 8 10 17 16 20 12 4 -4 13 -2 20 4 10 9 15 7 20 -4 3 -9 3 -21
0 -26 -8 -13 26 -31 58 -31 14 0 28 -4 31 -10 8 -13 72 -13 80 0 3 6 16 8 29
4 14 -3 27 1 35 10 8 9 24 16 37 16 13 0 38 9 55 19 23 14 38 17 60 11 23 -7
35 -3 65 21 20 16 44 29 54 29 19 0 60 40 60 58 0 7 12 17 26 22 19 8 24 15
19 28 -19 44 -19 56 -1 49 18 -7 58 15 109 63 21 20 27 34 27 67 0 44 -14 55
-38 31z"/>
<path d="M5085 1220 c28 -12 37 -12 30 0 -3 6 -16 10 -28 9 -21 0 -21 -1 -2
-9z"/>
<path d="M6447 1045 c-4 -8 -2 -17 3 -20 6 -4 10 3 10 14 0 25 -6 27 -13 6z"/>
<path d="M6341 720 c-8 -4 -16 -14 -17 -22 -1 -7 -5 -20 -9 -29 -4 -10 0 -19
10 -23 12 -4 20 4 31 30 16 38 9 59 -15 44z"/>
</g>
</svg>
